<?xml version="1.0" encoding="UTF-8"?>
<svg id="Layer_1" data-name="Layer 1" xmlns="http://www.w3.org/2000/svg" viewBox="0 0 1080 1080">
  <defs>
    <style>
      .cls-1 {
        fill: none;
        stroke: #414042;
        stroke-miterlimit: 10;
        stroke-width: 2px;
      }

      .cls-2 {
        fill: #414042;
        stroke-width: 0px;
      }
    </style>
  </defs>
  <g>
    <path class="cls-2" d="M266.31,763.2c0,2.63.68,4.61,2.03,5.97,1.35,1.35,3.26,2.3,5.72,2.83,2.46.53,5.82.92,10.09,1.17v5.29h-45.53v-5.29c5.09-.16,8.72-.9,10.89-2.21,2.17-1.31,3.26-3.9,3.26-7.75v-65.47c0-3.86-1.09-6.44-3.26-7.75-2.17-1.31-5.81-2.05-10.89-2.21v-5.29h45.66c8.45,0,15.4,1.25,20.86,3.75,5.46,2.5,9.41,5.8,11.88,9.91,2.46,4.1,3.69,8.66,3.69,13.66,0,8.53-2.85,15.43-8.55,20.67-5.7,5.25-14.21,7.88-25.54,7.88h-20.31v24.86ZM280.71,731.57c8.61,0,14.85-1.66,18.71-4.98,3.86-3.32,5.78-8.72,5.78-16.18,0-6.73-1.99-11.94-5.97-15.63-3.98-3.69-10.15-5.54-18.52-5.54h-14.4v42.33h14.4Z"/>
    <path class="cls-2" d="M342.55,775.51c-4.96-2.79-8.82-6.67-11.57-11.63-2.75-4.96-4.12-10.56-4.12-16.8,0-6.97,1.6-13.13,4.8-18.46,3.2-5.33,7.49-9.43,12.86-12.31,5.37-2.87,11.22-4.31,17.54-4.31s12.08,1.4,17.04,4.18c4.96,2.79,8.82,6.67,11.57,11.63,2.75,4.96,4.12,10.56,4.12,16.8,0,6.97-1.6,13.13-4.8,18.46-3.2,5.33-7.49,9.44-12.86,12.31-5.37,2.87-11.22,4.31-17.54,4.31s-12.08-1.39-17.04-4.18ZM377.01,765.66c3.16-4.26,4.74-9.89,4.74-16.86,0-5.33-.94-10.21-2.83-14.64-1.89-4.43-4.6-7.96-8.12-10.58-3.53-2.62-7.67-3.94-12.43-3.94-5.99,0-10.56,2.13-13.72,6.4-3.16,4.27-4.74,9.89-4.74,16.86,0,5.33.94,10.21,2.83,14.64,1.89,4.43,4.59,7.96,8.12,10.58,3.53,2.63,7.67,3.94,12.43,3.94,5.99,0,10.56-2.13,13.72-6.4Z"/>
    <path class="cls-2" d="M460.75,779.69h-1.85l.62-11.44c-2.79,3.53-6.15,6.32-10.09,8.37-3.94,2.05-8.25,3.08-12.92,3.08-6.15,0-11.44-1.35-15.88-4.06-4.43-2.71-7.8-6.4-10.09-11.08-2.3-4.68-3.45-9.89-3.45-15.63,0-7.38,1.56-13.86,4.68-19.44,3.12-5.58,7.32-9.89,12.61-12.92,5.29-3.03,11.1-4.55,17.41-4.55,7.14,0,13.04,1.76,17.72,5.29v-26.09l-9.23-3.32v-2.95l17.84-6.15h4.31l-.62,10.58v75.07c0,2.05.45,3.43,1.35,4.12.9.7,2.83,1.21,5.78,1.54l3.32.37v4.92l-21.54,4.31ZM425.55,725.79c-3.86,4.51-5.78,10.87-5.78,19.07,0,6.89,1.74,12.82,5.23,17.78,3.49,4.96,8.88,7.45,16.18,7.45,3.61,0,7.01-.72,10.21-2.15,3.2-1.43,5.91-3.3,8.12-5.6v-26.71c0-5.5-1.77-9.64-5.29-12.43-3.53-2.79-7.88-4.18-13.04-4.18-6.56,0-11.77,2.26-15.63,6.77Z"/>
    <path class="cls-2" d="M503.27,777.97c-3.98-1.15-7.28-2.71-9.91-4.68l-.74-16.37h5.17c1.31,5.42,3.49,9.48,6.52,12.18,3.03,2.71,7.06,4.06,12.06,4.06,4.35,0,7.73-.94,10.15-2.83,2.42-1.89,3.63-4.59,3.63-8.12,0-2.79-.9-4.92-2.71-6.4-1.81-1.48-4.64-2.79-8.49-3.94l-8.61-2.71c-5.66-1.72-9.87-3.94-12.61-6.65-2.75-2.71-4.12-6.69-4.12-11.94,0-5.74,2.05-10.28,6.15-13.6,4.1-3.32,9.64-4.98,16.61-4.98,7.96,0,15.01,1.76,21.17,5.29v15.26h-5.17c-.98-4.92-2.81-8.49-5.48-10.71-2.67-2.21-6.3-3.32-10.89-3.32-3.45,0-6.2.8-8.25,2.4-2.05,1.6-3.08,3.96-3.08,7.08,0,2.46.72,4.37,2.15,5.72,1.43,1.35,3.75,2.56,6.95,3.63l9.72,2.95c6.15,1.8,10.67,4.16,13.54,7.08,2.87,2.91,4.31,7.16,4.31,12.74,0,6.07-2.28,10.85-6.83,14.34-4.55,3.49-10.61,5.23-18.15,5.23-4.76,0-9.13-.58-13.11-1.72Z"/>
    <path class="cls-2" d="M570.77,762.15c4.02,4.55,9.8,6.83,17.35,6.83,4.76,0,8.9-.9,12.43-2.71,3.53-1.8,6.44-4.14,8.74-7.01l3.57,1.6c-1.56,5.17-4.72,9.6-9.48,13.29-4.76,3.69-11.12,5.54-19.08,5.54-6.73,0-12.47-1.5-17.23-4.49-4.76-2.99-8.31-6.91-10.65-11.75-2.34-4.84-3.51-10.01-3.51-15.51,0-7.14,1.52-13.43,4.55-18.89,3.03-5.46,7.24-9.66,12.61-12.61,5.37-2.95,11.46-4.43,18.28-4.43,4.68,0,8.76.7,12.24,2.09,3.49,1.4,6.17,3.3,8.06,5.72,1.89,2.42,2.83,5.15,2.83,8.18,0,1.89-.43,3.51-1.29,4.86-.86,1.35-2.03,2.36-3.51,3.01h-8.37v-5.05c0-3.94-.98-6.87-2.95-8.8-1.97-1.93-5.13-2.89-9.48-2.89-6.32,0-11.43,2.13-15.32,6.4-3.9,4.27-5.85,10.17-5.85,17.72,0,8.04,2.01,14.34,6.03,18.89Z"/>
    <path class="cls-2" d="M677.09,762.34c0,2.71.49,4.78,1.48,6.21.98,1.44,2.42,2.15,4.31,2.15s3.61-.25,5.42-.74l1.23,3.81c-2.13,2.05-4.23,3.55-6.28,4.49-2.05.94-4.23,1.42-6.52,1.42-3.04,0-5.46-.96-7.26-2.89-1.81-1.93-3.24-4.7-4.31-8.31-2.95,3.28-6.26,5.97-9.91,8.06-3.65,2.09-8.02,3.14-13.11,3.14-5.91,0-10.5-1.56-13.78-4.68-3.28-3.12-4.92-7.18-4.92-12.18,0-3.61.76-6.48,2.28-8.61,1.52-2.13,3.46-3.75,5.85-4.86,2.38-1.11,5.54-2.23,9.48-3.38l23.75-7.01v-2.58c0-5.33-1.27-9.66-3.82-12.98-2.54-3.32-6.36-4.98-11.44-4.98-3.45,0-6.01.74-7.69,2.22-1.68,1.48-2.52,3.77-2.52,6.89,0,1.23.2,3.2.62,5.91l-10.21,1.23c-1.81-1.8-2.71-4.02-2.71-6.65,0-4.92,2.36-8.82,7.08-11.69,4.72-2.87,10.65-4.31,17.78-4.31,16.82,0,25.23,7.88,25.23,23.63v26.71ZM655.99,769.11c2.25-1.15,5.19-3.12,8.8-5.91v-18.21l-21.54,6.77c-2.22.74-3.9,1.77-5.05,3.08-1.15,1.31-1.72,3.12-1.72,5.41,0,3.45,1,6.07,3.01,7.88,2.01,1.8,4.74,2.71,8.18,2.71s6.05-.57,8.31-1.72Z"/>
    <path class="cls-2" d="M717.46,774.77v21.41c0,2.54.76,4.22,2.28,5.04,1.52.82,4.04,1.48,7.57,1.97v4.8h-32v-4.8c3.53-.49,6.05-1.15,7.57-1.97,1.52-.82,2.28-2.5,2.28-5.04v-70.76l-9.23-4.31v-2.95l17.84-6.15h4.31l-.62,11.44c2.71-3.45,6.13-6.21,10.28-8.31,4.14-2.09,8.55-3.14,13.23-3.14,6.15,0,11.4,1.35,15.75,4.06,4.35,2.71,7.63,6.4,9.85,11.08,2.21,4.68,3.32,9.89,3.32,15.63,0,7.38-1.58,13.87-4.74,19.44-3.16,5.58-7.45,9.89-12.86,12.92-5.42,3.04-11.36,4.55-17.84,4.55-6.97,0-12.63-1.64-16.98-4.92ZM751.42,766.15c3.85-4.35,5.78-10.42,5.78-18.21,0-7.38-1.66-13.66-4.98-18.83-3.32-5.17-8.64-7.75-15.94-7.75-3.61,0-7.1.76-10.46,2.28-3.37,1.52-6.15,3.47-8.37,5.85v27.69c0,5.42,1.74,9.35,5.23,11.81,3.49,2.46,7.86,3.69,13.11,3.69,6.56,0,11.77-2.17,15.63-6.52Z"/>
    <path class="cls-2" d="M829.69,715.39c4.1,2.26,7.2,5.35,9.29,9.29,2.09,3.94,3.14,8.41,3.14,13.41v3.45h-48.24c0,8.7,1.95,15.44,5.85,20.24,3.9,4.8,9.82,7.2,17.78,7.2,4.76,0,8.9-.9,12.43-2.71,3.53-1.8,6.44-4.14,8.74-7.01l3.57,1.6c-1.56,5.17-4.72,9.6-9.48,13.29-4.76,3.69-11.12,5.54-19.08,5.54-6.4,0-11.98-1.39-16.74-4.18-4.76-2.79-8.41-6.6-10.95-11.45-2.54-4.84-3.81-10.21-3.81-16.12,0-7.06,1.39-13.31,4.18-18.77,2.79-5.46,6.67-9.68,11.63-12.68,4.96-2.99,10.56-4.49,16.8-4.49,5.83,0,10.79,1.13,14.89,3.38ZM799.91,723.94c-3.12,2.87-5,6.69-5.66,11.45h34.33c0-4.51-1.48-8.26-4.43-11.26-2.95-2.99-7.1-4.49-12.43-4.49-4.76,0-8.7,1.44-11.81,4.31Z"/>
  </g>
  <path class="cls-1" d="M745.11,401.71c0,113.28-91.83,205.11-205.11,205.11-42.48,0-81.94-12.91-114.68-35.03-10.91-7.37-21.08-19.63-30.36-25.05-9.28-33.35-17.67-41.48-25.05-30.36-7.37-6.37-13.72.73-18.91-34.84-5.19.32-9.22-48.19-11.95-38.5-2.73-11.64-4.17-33.32-4.17-41.34,0-14.16,1.43-27.98,4.17-41.34,19.13-93.46,101.82-163.77,200.94-163.77,14.16,0,27.98,1.43,41.34,4.17,13.35,2.73,26.23,6.76,38.5,11.95,12.27,4.6,23.93,9.82,34.84,18.91,10.91-10.41,21.08,36.62,30.36,25.05,9.28-2.39,17.67,27.09,25.05,30.36,7.37,18.43,13.72,17.49,18.91,34.84,5.19,28.69,9.22,30.79,11.95,38.5,2.73,13.35,4.17,27.18,4.17,41.34Z"/>
  <path class="cls-1" d="M736.56,401.71c0,108.56-88,196.56-196.56,196.56-40.71,0-78.53-12.38-109.9-33.57-10.46-7.06-20.2-6.61-29.09-24-8.89,10.62-16.94-8.85-24-29.09-7.06,15.96-13.15-13.08-18.12-33.39-4.97,2.08-8.83-25.55-11.45-36.9-2.62.1-3.99-26.52-3.99-39.61s1.38-26.82,3.99-39.61c18.33-89.57,97.58-156.95,192.57-156.95,13.57,0,26.82,1.38,39.61,3.99,12.8,2.62,25.14,6.48,36.9,11.45,11.76-5.63,22.93,8.66,33.39,18.12,10.46-40.38,20.2,21.41,29.09,24,8.89-6.77,16.94,31.91,24,29.09,7.06-11.27,13.15,11.27,18.12,33.39,4.97,35.75,8.83,13.79,11.45,36.9,2.62,12.8,3.99,26.04,3.99,39.61Z"/>
  <path class="cls-1" d="M728.01,401.71c0,103.84-84.18,188.01-188.01,188.01-38.94,0-75.11-11.84-105.12-32.11-10-6.76-19.32-21.89-27.83-22.96-8.51,11.23-16.2-12.75-22.96-27.83-6.76,1.93-12.58-10.86-17.33-31.94-4.76-6.35-8.45-30.7-10.96-35.29-2.5-3.59-3.82-41.81-3.82-37.89,0-18.96,1.32-25.65,3.82-37.89,17.53-85.67,93.34-150.12,184.19-150.12,12.98,0,25.65,1.32,37.89,3.82,12.24,2.5,24.05,6.2,35.29,10.96,11.25-2.66,21.93,14.45,31.94,17.33,10-13.52,19.32,16.29,27.83,22.96,8.51,26.45,16.2,33.08,22.96,27.83,6.76,18.58,12.58,20.75,17.33,31.94,4.76,9.35,8.45.64,10.96,35.29,2.5,12.24,3.82,24.91,3.82,37.89Z"/>
  <path class="cls-1" d="M719.47,401.71c0,99.12-80.35,179.47-179.47,179.47-37.17,0-71.7-11.3-100.34-30.65-9.55-6.45-18.44-5.05-26.56-21.91-8.12,6.52-15.46-6.77-21.91-26.56-6.45-6.23-12.01-11.66-16.55-30.49-4.54-11.93-8.07-17.45-10.46-33.69-2.39-4.95-3.65,14.12-3.65-36.17,0-22.73,1.26-24.49,3.65-36.17,16.73-81.78,89.09-143.3,175.82-143.3,12.39,0,24.49,1.26,36.17,3.65,11.68,2.39,22.95,5.92,33.69,10.46,10.74,11.35,20.94,10.93,30.49,16.55,9.55,17.02,18.44,49.55,26.56,21.91,8.12,13.87,15.46,32.42,21.91,26.56,6.45-3,12.01-4.34,16.55,30.49,4.54.59,8.07,32.36,10.46,33.69,2.39,11.68,3.65,23.78,3.65,36.17Z"/>
  <path class="cls-1" d="M710.92,401.71c0,94.4-76.52,170.92-170.92,170.92-26.97,0-52.48-6.25-75.17-17.37-11.34-5.56-21.98-12.35-31.74-20.18-9.76,7.82-18.64-1.16-26.47-26.47-7.83-34.1-14.61-29.5-20.18-31.74-5.56-28.7-9.91,3.81-12.86-35.98-2.95.19-4.51-22.33-4.51-39.19,0-11.41,1.56-16.23,4.51-39.19,2.95-12.58,7.3-24.63,12.86-35.98,27.81-56.71,86.12-95.75,153.55-95.75,13.49,0,26.61,1.56,39.19,4.51,12.58,2.95,24.63,5.53,35.98,12.86,11.34-3.88,21.98,2.21,31.74,20.18,9.76,18.93,18.64,4.66,26.47,26.47,7.83,8.21,14.61,48.89,20.18,31.74,5.56-26.18,9.91,39.4,12.86,35.98,2.95,12.58,4.51,25.71,4.51,39.19Z"/>
  <path class="cls-1" d="M702.38,401.71c0,89.68-72.7,162.38-162.38,162.38-25.62,0-49.86-5.93-71.41-16.5-10.78-5.28-20.88-11.73-30.15-19.17-9.27-32.71-17.71-21.16-25.15-25.15-7.44,3.47-13.88-19.17-19.17-30.15-5.28-24.72-9.41-32.46-12.22-34.18-2.8-17.75-4.29,18.66-4.29-37.23,0,1.61,1.48-1.32,4.29-37.23,2.8-11.96,6.93-23.4,12.22-34.18,26.42-53.88,81.82-90.97,145.87-90.97,12.81,0,25.28,1.48,37.23,4.29,11.96,2.69,23.4,11.54,34.18,12.22,10.78,11.44,20.88-.84,30.15,19.17,9.27-16.72,17.71-12.22,25.15,25.15,7.44,9.86,13.88,16.92,19.17,30.15,5.28,14.41,9.41,24.02,12.22,34.18,2.8,15.81,4.29,24.42,4.29,37.23Z"/>
  <path class="cls-1" d="M693.83,401.71c0,84.96-68.87,153.83-153.83,153.83-24.27,0-47.23-5.62-67.65-15.64-10.21-5.01-19.78-11.11-28.56-18.16-8.78-22.56-16.77-25.55-23.82-23.82-7.05-44.12-13.15,16.24-18.16-28.56-5.01,8.06-8.92-33.76-11.57-32.38-2.66-1.75-4.06-8.84-4.06-35.27,0-19.83,1.41-35.62,4.06-35.27,2.66-11.33,6.57-22.17,11.57-32.38,25.03-51.04,77.51-86.18,138.19-86.18,12.14,0,23.95,1.41,35.27,4.06,11.33,1.81,22.17-4.75,32.38,11.57,10.21,8.52,19.78,20.58,28.56,18.16,8.78,2.22,16.77,7.6,23.82,23.82,7.05-20.72,13.15-.03,18.16,28.56,5.01,23.88,8.92,25.19,11.57,32.38,2.66,19.01,4.06,23.13,4.06,35.27Z"/>
  <path class="cls-1" d="M685.28,401.71c0,13.37-1.81,26.32-5.19,38.62-16.91,61.49-73.23,106.66-140.09,106.66-13.37,0-26.32-1.81-38.62-5.19-12.3-3.38-23.94-8.34-34.71-14.65-10.76-9.84-20.64-6.69-29.4-22.72-8.76-6.89-16.41,3.07-22.72-29.4-6.3-23.56-11.26-10.11-14.65-34.71-3.38-24.02-5.19-32.12-5.19-38.62,0-20.84,1.81-25.69,5.19-38.62,3.38-12.3,8.34-23.94,14.65-34.71,25.22-43.05,71.96-71.96,125.45-71.96,13.37,0,26.32,5.36,38.62,5.19,12.3,5.68,23.94-14.24,34.71,14.65,10.76-3.13,20.64,17.28,29.4,22.72,8.76-21.51,16.41,39.44,22.72,29.4,6.3,14.88,11.26,12.03,14.65,34.71,3.38-1.39,5.19,27.78,5.19,38.62Z"/>
  <path class="cls-1" d="M676.74,401.71c0,12.59-1.7,24.78-4.88,36.35-15.92,57.87-68.92,100.39-131.85,100.39-12.59,0-24.78-1.7-36.35-4.88-11.57-3.18-22.54-7.85-32.66-13.78-10.13-.31-19.43-6.57-27.67-21.38-8.25-.5-15.45-23.35-21.38-27.67-5.93,16.13-10.6-.31-13.78-32.66-3.18-2.51-4.88,3.39-4.88-36.35,0-7.12,1.7-32.65,4.88-36.35,3.18-9.63,7.85-22.54,13.78-32.66,23.73-40.51,67.72-67.72,118.07-67.72,12.59,0,24.78-1.05,36.35,4.88,11.57,2.88,22.54,6.99,32.66,13.78,10.13-7.11,19.43,10.27,27.67,21.38,8.25-3.78,15.45,18.61,21.38,27.67,5.93,3.14,10.6-8.36,13.78,32.66,3.18,19.22,4.88,20.49,4.88,36.35Z"/>
  <path class="cls-1" d="M668.19,401.71c0,11.8-1.59,23.23-4.58,34.08-14.92,54.26-64.61,94.11-123.61,94.11-11.8,0-23.23-1.59-34.08-4.58-10.85-2.98-21.13-7.36-30.62-12.92-9.5,4.44-18.21-.51-25.94-20.04-7.73-49.57-14.48-23.75-20.04-25.94-5.56-36.4-9.94-3.46-12.92-30.62-2.98-5.04-4.58-8.79-4.58-34.08,0-35.14,1.59-24.62,4.58-34.08,2.98-7.16,7.36-24.52,12.92-30.62,5.56-9.5,12.31-18.21,20.04-25.94,15.47-15.47,34.86-27,56.57-32.97,10.85-2.98,22.28-4.58,34.08-4.58,11.8-2.96,23.23,5.88,34.08,4.58,10.85,7.77,21.13,27.1,30.62,12.92,9.5,16.22,18.21,17.29,25.94,20.04,7.73-10.67,14.48,23.3,20.04,25.94,5.56,19.97,9.94,22.44,12.92,30.62,2.98,16.23,4.58,20.61,4.58,34.08Z"/>
  <path class="cls-1" d="M659.65,401.99c0,11.01-1.49,21.68-4.27,31.81-13.93,50.64-60.31,87.84-115.37,87.84-11.01,0-21.68-1.49-31.81-4.27-10.13-2.79-19.72-6.87-28.58-12.06-8.86,4.15-17-.47-24.21-18.71-7.22-46.27-13.52-22.17-18.71-24.21-5.19-33.97-9.28-3.23-12.06-28.58-2.79-4.7-4.27-8.21-4.27-31.81,0-32.79,1.49-22.98,4.27-31.81,2.79-6.68,6.87-22.89,12.06-28.58,5.19-8.86,11.49-17,18.71-24.21,14.43-14.43,32.54-25.2,52.8-30.77,10.13-2.79,20.79-4.27,31.81-4.27,11.01-2.76,21.68,5.49,31.81,4.27,10.13,7.25,19.72,25.3,28.58,12.06,8.86,15.14,17,16.14,24.21,18.71,7.22-9.96,13.52,21.75,18.71,24.21,5.19,18.64,9.28,20.94,12.06,28.58,2.79,15.15,4.27,19.24,4.27,31.81Z"/>
  <path class="cls-1" d="M651.1,401.97c0,10.23-1.38,20.13-3.97,29.53-12.93,47.02-56,81.56-107.13,81.56-10.23,0-20.13-1.38-29.53-3.97-9.4-2.59-18.31-6.38-26.54-11.2-8.23,3.85-15.78-.44-22.49-17.37-6.7-42.96-12.55-20.59-17.37-22.49-4.82-31.55-8.61-3-11.2-26.54-2.59-4.36-3.97-7.62-3.97-29.53,0-30.45,1.38-21.33,3.97-29.53,2.59-6.2,6.38-21.25,11.2-26.54,4.82-8.23,10.67-15.78,17.37-22.49,13.4-13.4,30.22-23.4,49.02-28.57,9.4-2.59,19.31-3.97,29.53-3.97,10.23-2.56,20.13,5.1,29.53,3.97,9.4,6.73,18.31,23.49,26.54,11.2,8.23,14.06,15.78,14.99,22.49,17.37,6.7-9.25,12.55,20.19,17.37,22.49,4.82,17.31,8.61,19.45,11.2,26.54,2.59,14.06,3.97,17.86,3.97,29.53Z"/>
  <path class="cls-1" d="M642.55,401.64c0,9.44-1.28,18.58-3.66,27.26-11.94,43.41-51.69,75.29-98.89,75.29-9.44,0-18.58-1.28-27.26-3.66-8.68-2.39-16.9-5.89-24.5-10.34-7.6,3.55-14.57-.41-20.76-16.04-6.19-39.66-11.59-19-16.04-20.76-4.45-29.12-7.95-2.77-10.34-24.5-2.39-4.03-3.66-7.04-3.66-27.26,0-28.11,1.28-19.69,3.66-27.26,2.39-5.72,5.89-19.62,10.34-24.5,4.45-7.6,9.85-14.57,16.04-20.76,12.37-12.37,27.89-21.6,45.25-26.37,8.68-2.39,17.82-3.66,27.26-3.66,9.44-2.37,18.58,4.7,27.26,3.66,8.68,6.21,16.9,21.68,24.5,10.34,7.6,12.98,14.57,13.84,20.76,16.04,6.19-8.54,11.59,18.64,16.04,20.76,4.45,15.98,7.95,17.95,10.34,24.5,2.39,12.98,3.66,16.49,3.66,27.26Z"/>
</svg>