<svg viewBox="0 0 800 600" xmlns="http://www.w3.org/2000/svg">
    <!-- Background -->
    <defs>
        <linearGradient id="grad1" x1="0%" y1="0%" x2="100%" y2="100%">
            <stop offset="0%" style="stop-color:#2D0B5A;stop-opacity:1" />
            <stop offset="100%" style="stop-color:#7B2CBF;stop-opacity:1" />
        </linearGradient>
    </defs>
    <rect width="800" height="600" fill="url(#grad1)"/>

    <!-- Network Pattern -->
    <g opacity="0.2">
        <circle cx="200" cy="300" r="3" fill="white"/>
        <circle cx="400" cy="200" r="3" fill="white"/>
        <circle cx="600" cy="300" r="3" fill="white"/>
        <circle cx="300" cy="400" r="3" fill="white"/>
        <circle cx="500" cy="400" r="3" fill="white"/>
        <line x1="200" y1="300" x2="400" y2="200" stroke="white" stroke-width="1"/>
        <line x1="400" y1="200" x2="600" y2="300" stroke="white" stroke-width="1"/>
        <line x1="300" y1="400" x2="500" y2="400" stroke="white" stroke-width="1"/>
        <line x1="200" y1="300" x2="300" y2="400" stroke="white" stroke-width="1"/>
        <line x1="600" y1="300" x2="500" y2="400" stroke="white" stroke-width="1"/>
    </g>

    <!-- Main Icon -->
    <circle cx="400" cy="300" r="120" fill="none" stroke="white" stroke-width="8" opacity="0.9"/>
    <path d="M340 300 L460 300 M400 240 L400 360" stroke="white" stroke-width="8" opacity="0.9"/>
    <circle cx="400" cy="300" r="40" fill="white" opacity="0.9"/>

    <!-- Decorative Elements -->
    <circle cx="400" cy="300" r="160" fill="none" stroke="white" stroke-width="2" opacity="0.3"/>
    <circle cx="400" cy="300" r="200" fill="none" stroke="white" stroke-width="2" opacity="0.2"/>
</svg>
