<svg viewBox="0 0 800 600" xmlns="http://www.w3.org/2000/svg">
    <!-- Background -->
    <defs>
        <linearGradient id="grad3" x1="0%" y1="0%" x2="100%" y2="100%">
            <stop offset="0%" style="stop-color:#FF3366;stop-opacity:1" />
            <stop offset="100%" style="stop-color:#FF9933;stop-opacity:1" />
        </linearGradient>
    </defs>
    <rect width="800" height="600" fill="url(#grad3)"/>

    <!-- NFT Frame Pattern -->
    <rect x="250" y="150" width="300" height="300" fill="none" stroke="white" stroke-width="8" opacity="0.9"/>

    <!-- Abstract Art Inside Frame -->
    <g opacity="0.9">
        <circle cx="400" cy="300" r="80" fill="white"/>
        <path d="M320 300 Q400 200 480 300 T640 300" fill="none" stroke="white" stroke-width="8"/>
        <rect x="360" y="260" width="80" height="80" fill="url(#grad3)"/>
    </g>

    <!-- Decorative Elements -->
    <g opacity="0.2">
        <circle cx="200" cy="150" r="20" fill="white"/>
        <circle cx="600" cy="450" r="20" fill="white"/>
        <circle cx="150" cy="450" r="10" fill="white"/>
        <circle cx="650" cy="150" r="10" fill="white"/>
    </g>

    <!-- Corner Marks -->
    <path d="M230 130 H270 M230 130 V170" stroke="white" stroke-width="4" opacity="0.6"/>
    <path d="M530 130 H570 M570 130 V170" stroke="white" stroke-width="4" opacity="0.6"/>
    <path d="M230 430 H270 M230 470 V430" stroke="white" stroke-width="4" opacity="0.6"/>
    <path d="M530 430 H570 M570 470 V430" stroke="white" stroke-width="4" opacity="0.6"/>
</svg>
